<mxfile host="app.diagrams.net" modified="2023-05-05T07:18:24.247Z" agent="Mozilla/5.0 (Windows NT 10.0; Win64; x64) AppleWebKit/537.36 (KHTML, like Gecko) Chrome/103.0.0.0 Safari/537.36" version="21.2.9" etag="8-USc5YNkP7hhZCdaSdP" type="github">
  <diagram name="第 1 页" id="0kgHy5BvW1zpJ1109Up3">
    <mxGraphModel>
      <root>
        <mxCell id="0" />
        <mxCell id="1" parent="0" />
      </root>
    </mxGraphModel>
  </diagram>
</mxfile>
